<?xml version="1.0" encoding="UTF-8"?>
<svg xmlns="http://www.w3.org/2000/svg" xmlns:xlink="http://www.w3.org/1999/xlink" width="685.5pt" height="508.5pt" viewBox="0 0 685.5 508.5" version="1.1">
<defs>
<clipPath id="clip1">
  <path d="M 504 15 L 685.484375 15 L 685.484375 95 L 504 95 Z M 504 15 "/>
</clipPath>
<clipPath id="clip2">
  <path d="M 504 55 L 685.484375 55 L 685.484375 134 L 504 134 Z M 504 55 "/>
</clipPath>
<clipPath id="clip3">
  <path d="M 504 98 L 685.484375 98 L 685.484375 178 L 504 178 Z M 504 98 "/>
</clipPath>
<clipPath id="clip4">
  <path d="M 504 141 L 685.484375 141 L 685.484375 221 L 504 221 Z M 504 141 "/>
</clipPath>
<clipPath id="clip5">
  <path d="M 504 179 L 685.484375 179 L 685.484375 259 L 504 259 Z M 504 179 "/>
</clipPath>
<clipPath id="clip6">
  <path d="M 504 218 L 685.484375 218 L 685.484375 298 L 504 298 Z M 504 218 "/>
</clipPath>
<clipPath id="clip7">
  <path d="M 503 253 L 685.484375 253 L 685.484375 332 L 503 332 Z M 503 253 "/>
</clipPath>
<clipPath id="clip8">
  <path d="M 503 290 L 685.484375 290 L 685.484375 370 L 503 370 Z M 503 290 "/>
</clipPath>
<clipPath id="clip9">
  <path d="M 503 361 L 685.484375 361 L 685.484375 440 L 503 440 Z M 503 361 "/>
</clipPath>
<clipPath id="clip10">
  <path d="M 503 402 L 685.484375 402 L 685.484375 481 L 503 481 Z M 503 402 "/>
</clipPath>
</defs>
<g id="surface1">
<path style=" stroke:none;fill-rule:nonzero;fill:rgb(100%,100%,100%);fill-opacity:1;" d="M 0 0 L 685.5 0 L 685.5 508.5 L 0 508.5 Z M 0 0 "/>
<path style="fill:none;stroke-width:1;stroke-linecap:square;stroke-linejoin:miter;stroke:rgb(0%,0%,0%);stroke-opacity:1;stroke-miterlimit:10;" d="M 10.00025 -51.59645 L 675.762988 -51.59645 L 675.762988 437.243896 L 10.00025 437.243896 Z M 10.00025 -51.59645 " transform="matrix(0.999975,0,0,0.999975,0,61.59516)"/>
<path style="fill:none;stroke-width:1;stroke-linecap:square;stroke-linejoin:miter;stroke:rgb(0%,0%,0%);stroke-opacity:1;stroke-miterlimit:10;" d="M 169.433923 -50.596425 L 169.433923 -37.463284 " transform="matrix(0.999975,0,0,0.999975,0,61.59516)"/>
<path style="fill:none;stroke-width:1;stroke-linecap:square;stroke-linejoin:miter;stroke:rgb(0%,0%,0%);stroke-opacity:1;stroke-miterlimit:10;" d="M 169.433923 -37.463284 L 159.433673 -27.463034 " transform="matrix(0.999975,0,0,0.999975,0,61.59516)"/>
<path style="fill:none;stroke-width:1;stroke-linecap:square;stroke-linejoin:miter;stroke:rgb(0%,0%,0%);stroke-opacity:1;stroke-miterlimit:10;" d="M 159.433673 -27.463034 L 10.00025 -27.463034 " transform="matrix(0.999975,0,0,0.999975,0,61.59516)"/>
<path style=" stroke:none;fill-rule:nonzero;fill:rgb(0%,0%,0%);fill-opacity:1;" d="M 42.105469 18.328125 L 43.335938 18.328125 L 43.335938 23.800781 C 43.335938 24.671875 43.496094 25.304688 43.820312 25.703125 C 44.140625 26.097656 44.65625 26.296875 45.359375 26.296875 C 46.046875 26.296875 46.53125 26.109375 46.820312 25.738281 C 47.105469 25.363281 47.25 24.734375 47.25 23.84375 L 47.25 18.328125 L 48.328125 18.328125 L 48.328125 23.824219 C 48.328125 25.007812 48.085938 25.871094 47.597656 26.410156 C 47.113281 26.949219 46.339844 27.21875 45.277344 27.21875 C 44.195312 27.21875 43.394531 26.9375 42.878906 26.378906 C 42.363281 25.820312 42.105469 24.957031 42.105469 23.789062 Z M 50.527344 27 L 50.527344 20.636719 L 51.679688 20.636719 L 51.679688 21.832031 C 52.289062 20.941406 53.035156 20.496094 53.917969 20.496094 C 54.46875 20.496094 54.910156 20.671875 55.238281 21.023438 C 55.566406 21.371094 55.730469 21.839844 55.730469 22.429688 L 55.730469 27 L 54.574219 27 L 54.574219 22.804688 C 54.574219 22.332031 54.503906 21.996094 54.367188 21.792969 C 54.226562 21.59375 54 21.492188 53.679688 21.492188 C 52.972656 21.492188 52.304688 21.957031 51.679688 22.882812 L 51.679688 27 Z M 57.972656 27 L 57.972656 20.636719 L 59.128906 20.636719 L 59.128906 27 Z M 57.972656 19.484375 L 57.972656 18.328125 L 59.128906 18.328125 L 59.128906 19.484375 Z M 65.527344 27 L 65.527344 25.804688 C 65.058594 26.699219 64.351562 27.148438 63.40625 27.148438 C 62.640625 27.148438 62.035156 26.867188 61.597656 26.308594 C 61.15625 25.75 60.9375 24.988281 60.9375 24.019531 C 60.9375 22.960938 61.1875 22.109375 61.683594 21.464844 C 62.183594 20.820312 62.839844 20.496094 63.652344 20.496094 C 64.40625 20.496094 65.03125 20.785156 65.527344 21.363281 L 65.527344 17.75 L 66.6875 17.75 L 66.6875 27 Z M 65.527344 22.15625 C 64.929688 21.628906 64.363281 21.363281 63.828125 21.363281 C 62.722656 21.363281 62.167969 22.210938 62.167969 23.902344 C 62.167969 25.390625 62.660156 26.132812 63.644531 26.132812 C 64.285156 26.132812 64.914062 25.785156 65.527344 25.085938 Z M 72.277344 26.191406 C 71.585938 26.828125 70.917969 27.148438 70.277344 27.148438 C 69.75 27.148438 69.3125 26.980469 68.964844 26.652344 C 68.617188 26.320312 68.445312 25.90625 68.445312 25.402344 C 68.445312 24.707031 68.734375 24.171875 69.320312 23.796875 C 69.902344 23.425781 70.742188 23.238281 71.832031 23.238281 L 72.105469 23.238281 L 72.105469 22.472656 C 72.105469 21.734375 71.726562 21.363281 70.96875 21.363281 C 70.359375 21.363281 69.703125 21.550781 68.996094 21.925781 L 68.996094 20.972656 C 69.773438 20.65625 70.5 20.496094 71.179688 20.496094 C 71.890625 20.496094 72.414062 20.65625 72.753906 20.976562 C 73.089844 21.296875 73.261719 21.796875 73.261719 22.472656 L 73.261719 25.355469 C 73.261719 26.015625 73.464844 26.34375 73.871094 26.34375 C 73.921875 26.34375 73.996094 26.335938 74.09375 26.320312 L 74.175781 26.960938 C 73.914062 27.085938 73.625 27.148438 73.308594 27.148438 C 72.769531 27.148438 72.425781 26.828125 72.277344 26.191406 Z M 72.105469 25.566406 L 72.105469 23.917969 L 71.71875 23.90625 C 71.085938 23.90625 70.574219 24.027344 70.183594 24.265625 C 69.792969 24.507812 69.597656 24.824219 69.597656 25.214844 C 69.597656 25.492188 69.695312 25.726562 69.890625 25.917969 C 70.085938 26.109375 70.324219 26.203125 70.605469 26.203125 C 71.085938 26.203125 71.585938 25.992188 72.105469 25.566406 Z M 79.703125 27 L 79.703125 25.804688 C 79.234375 26.699219 78.527344 27.148438 77.582031 27.148438 C 76.820312 27.148438 76.214844 26.867188 75.777344 26.308594 C 75.335938 25.75 75.117188 24.988281 75.117188 24.019531 C 75.117188 22.960938 75.367188 22.109375 75.863281 21.464844 C 76.363281 20.820312 77.019531 20.496094 77.828125 20.496094 C 78.582031 20.496094 79.207031 20.785156 79.703125 21.363281 L 79.703125 17.75 L 80.863281 17.75 L 80.863281 27 Z M 79.703125 22.15625 C 79.109375 21.628906 78.542969 21.363281 78.003906 21.363281 C 76.902344 21.363281 76.347656 22.210938 76.347656 23.902344 C 76.347656 25.390625 76.839844 26.132812 77.824219 26.132812 C 78.464844 26.132812 79.089844 25.785156 79.703125 25.085938 Z M 91.054688 27 L 91.054688 25.804688 C 90.585938 26.699219 89.878906 27.148438 88.933594 27.148438 C 88.167969 27.148438 87.566406 26.867188 87.125 26.308594 C 86.6875 25.75 86.464844 24.988281 86.464844 24.019531 C 86.464844 22.960938 86.714844 22.109375 87.214844 21.464844 C 87.710938 20.820312 88.367188 20.496094 89.179688 20.496094 C 89.933594 20.496094 90.558594 20.785156 91.054688 21.363281 L 91.054688 17.75 L 92.214844 17.75 L 92.214844 27 Z M 91.054688 22.15625 C 90.457031 21.628906 89.890625 21.363281 89.355469 21.363281 C 88.25 21.363281 87.695312 22.210938 87.695312 23.902344 C 87.695312 25.390625 88.1875 26.132812 89.171875 26.132812 C 89.8125 26.132812 90.441406 25.785156 91.054688 25.085938 Z M 99.1875 26.796875 C 98.414062 27.03125 97.75 27.148438 97.199219 27.148438 C 96.261719 27.148438 95.5 26.835938 94.90625 26.210938 C 94.316406 25.589844 94.019531 24.78125 94.019531 23.789062 C 94.019531 22.824219 94.28125 22.035156 94.800781 21.417969 C 95.324219 20.800781 95.988281 20.492188 96.800781 20.492188 C 97.570312 20.492188 98.167969 20.765625 98.585938 21.3125 C 99.007812 21.859375 99.214844 22.636719 99.214844 23.644531 L 99.210938 24 L 95.195312 24 C 95.363281 25.511719 96.105469 26.269531 97.417969 26.269531 C 97.898438 26.269531 98.488281 26.140625 99.1875 25.882812 Z M 95.25 23.132812 L 98.054688 23.132812 C 98.054688 21.949219 97.613281 21.359375 96.730469 21.359375 C 95.84375 21.359375 95.351562 21.949219 95.25 23.132812 Z M 105.003906 27 L 105.003906 20.636719 L 106.160156 20.636719 L 106.160156 27 Z M 105.003906 19.484375 L 105.003906 18.328125 L 106.160156 18.328125 L 106.160156 19.484375 Z M 108.472656 27 L 108.472656 20.636719 L 109.628906 20.636719 L 109.628906 21.832031 C 110.238281 20.941406 110.984375 20.496094 111.867188 20.496094 C 112.417969 20.496094 112.855469 20.671875 113.183594 21.023438 C 113.511719 21.371094 113.675781 21.839844 113.675781 22.429688 L 113.675781 27 L 112.523438 27 L 112.523438 22.804688 C 112.523438 22.332031 112.453125 21.996094 112.316406 21.792969 C 112.175781 21.59375 111.945312 21.492188 111.625 21.492188 C 110.917969 21.492188 110.253906 21.957031 109.628906 22.882812 L 109.628906 27 Z M 117.296875 21.503906 L 117.296875 27 L 116.136719 27 L 116.136719 21.503906 L 115.234375 21.503906 L 115.234375 20.636719 L 116.136719 20.636719 L 116.136719 19.875 C 116.136719 18.359375 116.828125 17.601562 118.210938 17.601562 C 118.597656 17.601562 119.039062 17.667969 119.53125 17.796875 L 119.53125 18.710938 C 119.011719 18.550781 118.59375 18.46875 118.28125 18.46875 C 117.902344 18.46875 117.644531 18.5625 117.507812 18.742188 C 117.367188 18.925781 117.296875 19.261719 117.296875 19.753906 L 117.296875 20.636719 L 118.886719 20.636719 L 118.886719 21.503906 Z M 123.613281 26.191406 C 122.921875 26.828125 122.257812 27.148438 121.617188 27.148438 C 121.089844 27.148438 120.652344 26.980469 120.304688 26.652344 C 119.957031 26.320312 119.78125 25.90625 119.78125 25.402344 C 119.78125 24.707031 120.074219 24.171875 120.65625 23.796875 C 121.242188 23.425781 122.078125 23.238281 123.167969 23.238281 L 123.445312 23.238281 L 123.445312 22.472656 C 123.445312 21.734375 123.066406 21.363281 122.308594 21.363281 C 121.699219 21.363281 121.039062 21.550781 120.332031 21.925781 L 120.332031 20.972656 C 121.109375 20.65625 121.839844 20.496094 122.519531 20.496094 C 123.230469 20.496094 123.753906 20.65625 124.089844 20.976562 C 124.429688 21.296875 124.597656 21.796875 124.597656 22.472656 L 124.597656 25.355469 C 124.597656 26.015625 124.800781 26.34375 125.207031 26.34375 C 125.257812 26.34375 125.332031 26.335938 125.429688 26.320312 L 125.511719 26.960938 C 125.25 27.085938 124.960938 27.148438 124.644531 27.148438 C 124.105469 27.148438 123.761719 26.828125 123.613281 26.191406 Z M 123.445312 25.566406 L 123.445312 23.917969 L 123.058594 23.90625 C 122.425781 23.90625 121.914062 24.027344 121.523438 24.265625 C 121.132812 24.507812 120.9375 24.824219 120.9375 25.214844 C 120.9375 25.492188 121.035156 25.726562 121.230469 25.917969 C 121.425781 26.109375 121.664062 26.203125 121.945312 26.203125 C 122.425781 26.203125 122.925781 25.992188 123.445312 25.566406 Z M 126.960938 27 L 126.960938 20.636719 L 128.113281 20.636719 L 128.113281 21.832031 C 128.722656 20.941406 129.46875 20.496094 130.351562 20.496094 C 130.902344 20.496094 131.34375 20.671875 131.671875 21.023438 C 132 21.371094 132.164062 21.839844 132.164062 22.429688 L 132.164062 27 L 131.007812 27 L 131.007812 22.804688 C 131.007812 22.332031 130.9375 21.996094 130.800781 21.792969 C 130.660156 21.59375 130.433594 21.492188 130.113281 21.492188 C 129.40625 21.492188 128.738281 21.957031 128.113281 22.882812 L 128.113281 27 Z M 136.316406 27.148438 C 135.730469 27.148438 135.273438 26.980469 134.945312 26.644531 C 134.617188 26.308594 134.453125 25.839844 134.453125 25.242188 L 134.453125 21.503906 L 133.65625 21.503906 L 133.65625 20.636719 L 134.453125 20.636719 L 134.453125 19.484375 L 135.609375 19.371094 L 135.609375 20.636719 L 137.273438 20.636719 L 137.273438 21.503906 L 135.609375 21.503906 L 135.609375 25.03125 C 135.609375 25.863281 135.96875 26.28125 136.6875 26.28125 C 136.839844 26.28125 137.023438 26.253906 137.242188 26.203125 L 137.242188 27 C 136.886719 27.097656 136.578125 27.148438 136.316406 27.148438 Z M 143.558594 26.796875 C 142.785156 27.03125 142.125 27.148438 141.574219 27.148438 C 140.636719 27.148438 139.871094 26.835938 139.277344 26.210938 C 138.6875 25.589844 138.390625 24.78125 138.390625 23.789062 C 138.390625 22.824219 138.652344 22.035156 139.171875 21.417969 C 139.695312 20.800781 140.363281 20.492188 141.175781 20.492188 C 141.945312 20.492188 142.539062 20.765625 142.957031 21.3125 C 143.378906 21.859375 143.589844 22.636719 143.589844 23.644531 L 143.582031 24 L 139.570312 24 C 139.738281 25.511719 140.476562 26.269531 141.789062 26.269531 C 142.269531 26.269531 142.859375 26.140625 143.558594 25.882812 Z M 139.621094 23.132812 L 142.429688 23.132812 C 142.429688 21.949219 141.988281 21.359375 141.105469 21.359375 C 140.21875 21.359375 139.722656 21.949219 139.621094 23.132812 Z M 145.582031 27 L 145.582031 20.636719 L 146.734375 20.636719 L 146.734375 21.832031 C 147.191406 20.941406 147.855469 20.496094 148.726562 20.496094 C 148.84375 20.496094 148.96875 20.507812 149.097656 20.527344 L 149.097656 21.605469 C 148.898438 21.539062 148.722656 21.503906 148.570312 21.503906 C 147.839844 21.503906 147.226562 21.9375 146.734375 22.804688 L 146.734375 27 Z M 150.492188 27 L 150.492188 20.636719 L 151.644531 20.636719 L 151.644531 27 Z M 150.226562 19.484375 L 151.640625 17.601562 L 152.976562 17.601562 L 151.09375 19.484375 Z M 157.238281 26.191406 C 156.546875 26.828125 155.882812 27.148438 155.242188 27.148438 C 154.714844 27.148438 154.277344 26.980469 153.929688 26.652344 C 153.582031 26.320312 153.410156 25.90625 153.410156 25.402344 C 153.410156 24.707031 153.699219 24.171875 154.285156 23.796875 C 154.867188 23.425781 155.707031 23.238281 156.792969 23.238281 L 157.070312 23.238281 L 157.070312 22.472656 C 157.070312 21.734375 156.691406 21.363281 155.933594 21.363281 C 155.324219 21.363281 154.667969 21.550781 153.960938 21.925781 L 153.960938 20.972656 C 154.738281 20.65625 155.464844 20.496094 156.144531 20.496094 C 156.855469 20.496094 157.378906 20.65625 157.71875 20.976562 C 158.054688 21.296875 158.222656 21.796875 158.222656 22.472656 L 158.222656 25.355469 C 158.222656 26.015625 158.425781 26.34375 158.832031 26.34375 C 158.882812 26.34375 158.957031 26.335938 159.054688 26.320312 L 159.136719 26.960938 C 158.875 27.085938 158.585938 27.148438 158.269531 27.148438 C 157.730469 27.148438 157.386719 26.828125 157.238281 26.191406 Z M 157.070312 25.566406 L 157.070312 23.917969 L 156.683594 23.90625 C 156.050781 23.90625 155.539062 24.027344 155.148438 24.265625 C 154.757812 24.507812 154.5625 24.824219 154.5625 25.214844 C 154.5625 25.492188 154.660156 25.726562 154.855469 25.917969 C 155.050781 26.109375 155.289062 26.203125 155.570312 26.203125 C 156.050781 26.203125 156.550781 25.992188 157.070312 25.566406 Z M 157.070312 25.566406 "/>
<path style=" stroke:none;fill-rule:nonzero;fill:rgb(0%,0%,0%);fill-opacity:1;" d="M 24.234375 26.308594 C 23.65625 26.867188 23.039062 27.148438 22.378906 27.148438 C 21.816406 27.148438 21.359375 26.976562 21.007812 26.632812 C 20.65625 26.289062 20.480469 25.84375 20.480469 25.296875 C 20.480469 24.585938 20.765625 24.035156 21.332031 23.652344 C 21.902344 23.265625 22.714844 23.074219 23.773438 23.074219 L 24.234375 23.074219 L 24.234375 22.488281 C 24.234375 21.820312 23.855469 21.488281 23.09375 21.488281 C 22.417969 21.488281 21.734375 21.679688 21.042969 22.0625 L 21.042969 20.867188 C 21.828125 20.570312 22.605469 20.421875 23.375 20.421875 C 25.058594 20.421875 25.898438 21.089844 25.898438 22.429688 L 25.898438 25.277344 C 25.898438 25.78125 26.0625 26.035156 26.386719 26.035156 C 26.445312 26.035156 26.519531 26.027344 26.613281 26.011719 L 26.65625 26.984375 C 26.289062 27.09375 25.964844 27.148438 25.683594 27.148438 C 24.972656 27.148438 24.515625 26.867188 24.3125 26.308594 Z M 24.234375 25.378906 L 24.234375 24.070312 L 23.824219 24.070312 C 22.703125 24.070312 22.144531 24.421875 22.144531 25.125 C 22.144531 25.363281 22.226562 25.5625 22.386719 25.726562 C 22.550781 25.886719 22.75 25.96875 22.988281 25.96875 C 23.394531 25.96875 23.808594 25.773438 24.234375 25.378906 Z M 32.882812 26.859375 C 32.164062 27.050781 31.5 27.148438 30.886719 27.148438 C 29.859375 27.148438 29.046875 26.84375 28.453125 26.242188 C 27.855469 25.636719 27.558594 24.816406 27.558594 23.777344 C 27.558594 22.726562 27.863281 21.90625 28.476562 21.3125 C 29.089844 20.71875 29.9375 20.421875 31.019531 20.421875 C 31.542969 20.421875 32.148438 20.503906 32.832031 20.671875 L 32.832031 21.925781 C 32.121094 21.695312 31.550781 21.582031 31.125 21.582031 C 30.605469 21.582031 30.1875 21.78125 29.871094 22.179688 C 29.554688 22.578125 29.398438 23.105469 29.398438 23.765625 C 29.398438 24.441406 29.570312 24.984375 29.910156 25.390625 C 30.253906 25.796875 30.707031 26 31.277344 26 C 31.796875 26 32.332031 25.886719 32.882812 25.660156 Z M 37.839844 26.964844 C 37.425781 27.085938 37.101562 27.148438 36.863281 27.148438 C 35.359375 27.148438 34.605469 26.445312 34.605469 25.039062 L 34.605469 21.652344 L 33.886719 21.652344 L 33.886719 20.566406 L 34.605469 20.566406 L 34.605469 19.484375 L 36.339844 19.285156 L 36.339844 20.566406 L 37.71875 20.566406 L 37.71875 21.652344 L 36.339844 21.652344 L 36.339844 24.808594 C 36.339844 25.597656 36.664062 25.992188 37.308594 25.992188 C 37.457031 25.992188 37.632812 25.964844 37.839844 25.910156 Z M 37.839844 26.964844 "/>
<path style="fill-rule:nonzero;fill:rgb(0%,0%,0%);fill-opacity:1;stroke-width:2;stroke-linecap:square;stroke-linejoin:miter;stroke:rgb(0%,0%,0%);stroke-opacity:1;stroke-miterlimit:10;" d="M 97.998544 195.998069 C 97.998544 201.521644 93.521869 205.998319 87.998294 205.998319 C 82.478624 205.998319 78.00195 201.521644 78.00195 195.998069 C 78.00195 190.478399 82.478624 186.001725 87.998294 186.001725 C 93.521869 186.001725 97.998544 190.478399 97.998544 195.998069 " transform="matrix(0.999975,0,0,0.999975,0,61.596675)"/>
<path style="fill-rule:nonzero;fill:rgb(100%,100%,80%);fill-opacity:1;stroke-width:2;stroke-linecap:square;stroke-linejoin:miter;stroke:rgb(0%,0%,0%);stroke-opacity:1;stroke-miterlimit:10;" d="M 164.000194 195.998069 L 179.000569 186.001725 L 194.000944 195.998069 L 179.000569 205.998319 Z M 164.000194 195.998069 " transform="matrix(0.999975,0,0,0.999975,0,61.596675)"/>
<path style="fill:none;stroke-width:1;stroke-linecap:square;stroke-linejoin:miter;stroke:rgb(0%,0%,0%);stroke-opacity:1;stroke-miterlimit:10;" d="M 97.998544 195.998069 L 164.000194 195.998069 " transform="matrix(0.999975,0,0,0.999975,0,61.596675)"/>
<path style="fill:none;stroke-width:1;stroke-linecap:square;stroke-linejoin:miter;stroke:rgb(0%,0%,0%);stroke-opacity:1;stroke-miterlimit:10;" d="M 164.000194 195.998069 L 153.609309 201.998219 " transform="matrix(0.999975,0,0,0.999975,0,61.596675)"/>
<path style="fill:none;stroke-width:1;stroke-linecap:square;stroke-linejoin:miter;stroke:rgb(0%,0%,0%);stroke-opacity:1;stroke-miterlimit:10;" d="M 164.000194 195.998069 L 153.609309 190.001825 " transform="matrix(0.999975,0,0,0.999975,0,61.596675)"/>
<path style="fill-rule:nonzero;fill:rgb(100%,100%,80%);fill-opacity:1;stroke-width:2;stroke-linecap:square;stroke-linejoin:miter;stroke:rgb(0%,0%,0%);stroke-opacity:1;stroke-miterlimit:10;" d="M 259.998687 195.998069 L 274.999062 186.001725 L 289.999437 195.998069 L 274.999062 205.998319 Z M 259.998687 195.998069 " transform="matrix(0.999975,0,0,0.999975,0,61.596675)"/>
<path style="fill:none;stroke-width:1;stroke-linecap:square;stroke-linejoin:miter;stroke:rgb(0%,0%,0%);stroke-opacity:1;stroke-miterlimit:10;" d="M 194.000944 196.025413 L 259.787745 196.126978 " transform="matrix(0.999975,0,0,0.999975,0,61.596675)"/>
<path style="fill:none;stroke-width:1;stroke-linecap:square;stroke-linejoin:miter;stroke:rgb(0%,0%,0%);stroke-opacity:1;stroke-miterlimit:10;" d="M 259.787745 196.126978 L 249.389047 202.111503 " transform="matrix(0.999975,0,0,0.999975,0,61.596675)"/>
<path style="fill:none;stroke-width:1;stroke-linecap:square;stroke-linejoin:miter;stroke:rgb(0%,0%,0%);stroke-opacity:1;stroke-miterlimit:10;" d="M 259.787745 196.126978 L 249.404673 190.111203 " transform="matrix(0.999975,0,0,0.999975,0,61.596675)"/>
<path style="fill-rule:nonzero;fill:rgb(100%,100%,80%);fill-opacity:1;stroke-width:2;stroke-linecap:square;stroke-linejoin:miter;stroke:rgb(0%,0%,0%);stroke-opacity:1;stroke-miterlimit:10;" d="M 353.001013 33.001806 L 368.001388 23.001556 L 383.001763 33.001806 L 368.001388 42.99815 Z M 353.001013 33.001806 " transform="matrix(0.999975,0,0,0.999975,0,61.596675)"/>
<path style="fill-rule:nonzero;fill:rgb(100%,100%,100%);fill-opacity:1;stroke-width:2;stroke-linecap:square;stroke-linejoin:miter;stroke:rgb(0%,0%,0%);stroke-opacity:1;stroke-miterlimit:10;" d="M 188.825033 243.139872 C 188.825033 248.659541 184.348359 253.140122 178.824783 253.140122 C 173.301208 253.140122 168.824533 248.659541 168.824533 243.139872 C 168.824533 237.616297 173.301208 233.139622 178.824783 233.139622 C 184.348359 233.139622 188.825033 237.616297 188.825033 243.139872 " transform="matrix(0.999975,0,0,0.999975,0,61.596675)"/>
<path style="fill-rule:nonzero;fill:rgb(0%,0%,0%);fill-opacity:1;stroke-width:2;stroke-linecap:square;stroke-linejoin:miter;stroke:rgb(0%,0%,0%);stroke-opacity:1;stroke-miterlimit:10;" d="M 185.492919 243.139872 C 185.492919 246.819652 182.508469 249.804101 178.824783 249.804101 C 175.145004 249.804101 172.156648 246.819652 172.156648 243.139872 C 172.156648 239.456186 175.145004 236.471737 178.824783 236.471737 C 182.508469 236.471737 185.492919 239.456186 185.492919 243.139872 " transform="matrix(0.999975,0,0,0.999975,0,61.596675)"/>
<path style="fill:none;stroke-width:1;stroke-linecap:square;stroke-linejoin:miter;stroke:rgb(0%,0%,0%);stroke-opacity:1;stroke-miterlimit:10;" d="M 178.961505 205.998319 L 178.863847 233.139622 " transform="matrix(0.999975,0,0,0.999975,0,61.596675)"/>
<path style="fill:none;stroke-width:1;stroke-linecap:square;stroke-linejoin:miter;stroke:rgb(0%,0%,0%);stroke-opacity:1;stroke-miterlimit:10;" d="M 178.863847 233.139622 L 172.90276 222.725299 " transform="matrix(0.999975,0,0,0.999975,0,61.596675)"/>
<path style="fill:none;stroke-width:1;stroke-linecap:square;stroke-linejoin:miter;stroke:rgb(0%,0%,0%);stroke-opacity:1;stroke-miterlimit:10;" d="M 178.863847 233.139622 L 184.899154 222.768269 " transform="matrix(0.999975,0,0,0.999975,0,61.596675)"/>
<path style="fill-rule:nonzero;fill:rgb(100%,100%,80%);fill-opacity:1;stroke-width:2;stroke-linecap:square;stroke-linejoin:miter;stroke:rgb(0%,0%,0%);stroke-opacity:1;stroke-miterlimit:10;" d="M 353.001013 195.00195 L 368.001388 185.0017 L 383.001763 195.00195 L 368.001388 204.998294 Z M 353.001013 195.00195 " transform="matrix(0.999975,0,0,0.999975,0,61.596675)"/>
<path style="fill-rule:nonzero;fill:rgb(100%,100%,80%);fill-opacity:1;stroke-width:2;stroke-linecap:square;stroke-linejoin:miter;stroke:rgb(0%,0%,0%);stroke-opacity:1;stroke-miterlimit:10;" d="M 352.000988 340.001669 L 367.001363 330.001419 L 382.001738 340.001669 L 367.001363 350.001919 Z M 352.000988 340.001669 " transform="matrix(0.999975,0,0,0.999975,0,61.596675)"/>
<path style=" stroke:none;fill-rule:nonzero;fill:rgb(100%,100%,80%);fill-opacity:1;" d="M 537.855469 44.132812 L 655.640625 44.132812 C 658.460938 44.132812 660.746094 46.953125 660.746094 49.238281 L 660.746094 61.15625 C 660.746094 63.976562 658.460938 66.261719 655.640625 66.261719 L 537.855469 66.261719 C 535.035156 66.261719 532.75 63.441406 532.75 61.15625 L 532.75 49.238281 C 532.75 46.417969 535.035156 44.132812 537.855469 44.132812 Z M 537.855469 44.132812 "/>
<g clip-path="url(#clip1)" clip-rule="nonzero">
<path style="fill:none;stroke-width:2;stroke-linecap:square;stroke-linejoin:miter;stroke:rgb(0%,0%,0%);stroke-opacity:1;stroke-miterlimit:10;" d="M 537.868915 -17.464299 L 655.657016 -17.464299 C 658.477399 -17.464299 660.762613 -14.643916 660.762613 -12.358703 L 660.762613 -0.440436 C 660.762613 2.379947 658.477399 4.66516 655.657016 4.66516 L 537.868915 4.66516 C 535.048532 4.66516 532.763319 1.844777 532.763319 -0.440436 L 532.763319 -12.358703 C 532.763319 -15.179086 535.048532 -17.464299 537.868915 -17.464299 Z M 537.868915 -17.464299 " transform="matrix(0.999975,0,0,0.999975,0,61.596675)"/>
</g>
<path style=" stroke:none;fill-rule:nonzero;fill:rgb(100%,100%,80%);fill-opacity:1;" d="M 537.773438 83.289062 L 655.558594 83.289062 C 658.378906 83.289062 660.664062 86.109375 660.664062 88.394531 L 660.664062 100.3125 C 660.664062 103.132812 658.378906 105.417969 655.558594 105.417969 L 537.773438 105.417969 C 534.953125 105.417969 532.667969 102.597656 532.667969 100.3125 L 532.667969 88.394531 C 532.667969 85.574219 534.953125 83.289062 537.773438 83.289062 Z M 537.773438 83.289062 "/>
<g clip-path="url(#clip2)" clip-rule="nonzero">
<path style="fill:none;stroke-width:2;stroke-linecap:square;stroke-linejoin:miter;stroke:rgb(0%,0%,0%);stroke-opacity:1;stroke-miterlimit:10;" d="M 537.786882 21.69293 L 655.574983 21.69293 C 658.395366 21.69293 660.68058 24.513313 660.68058 26.798526 L 660.68058 38.716793 C 660.68058 41.537176 658.395366 43.822389 655.574983 43.822389 L 537.786882 43.822389 C 534.966499 43.822389 532.681286 41.002006 532.681286 38.716793 L 532.681286 26.798526 C 532.681286 23.978143 534.966499 21.69293 537.786882 21.69293 Z M 537.786882 21.69293 " transform="matrix(0.999975,0,0,0.999975,0,61.596675)"/>
</g>
<path style=" stroke:none;fill-rule:nonzero;fill:rgb(100%,100%,80%);fill-opacity:1;" d="M 537.773438 127.265625 L 655.558594 127.265625 C 658.378906 127.265625 660.664062 130.085938 660.664062 132.371094 L 660.664062 144.289062 C 660.664062 147.109375 658.378906 149.394531 655.558594 149.394531 L 537.773438 149.394531 C 534.953125 149.394531 532.667969 146.574219 532.667969 144.289062 L 532.667969 132.371094 C 532.667969 129.550781 534.953125 127.265625 537.773438 127.265625 Z M 537.773438 127.265625 "/>
<g clip-path="url(#clip3)" clip-rule="nonzero">
<path style="fill:none;stroke-width:2;stroke-linecap:square;stroke-linejoin:miter;stroke:rgb(0%,0%,0%);stroke-opacity:1;stroke-miterlimit:10;" d="M 537.786882 65.670592 L 655.574983 65.670592 C 658.395366 65.670592 660.68058 68.490975 660.68058 70.776188 L 660.68058 82.694455 C 660.68058 85.514838 658.395366 87.800051 655.574983 87.800051 L 537.786882 87.800051 C 534.966499 87.800051 532.681286 84.979668 532.681286 82.694455 L 532.681286 70.776188 C 532.681286 67.955805 534.966499 65.670592 537.786882 65.670592 Z M 537.786882 65.670592 " transform="matrix(0.999975,0,0,0.999975,0,61.596675)"/>
</g>
<path style=" stroke:none;fill-rule:nonzero;fill:rgb(100%,100%,80%);fill-opacity:1;" d="M 537.691406 169.707031 L 655.476562 169.707031 C 658.296875 169.707031 660.582031 172.527344 660.582031 174.8125 L 660.582031 186.730469 C 660.582031 189.550781 658.296875 191.835938 655.476562 191.835938 L 537.691406 191.835938 C 534.871094 191.835938 532.585938 189.015625 532.585938 186.730469 L 532.585938 174.8125 C 532.585938 171.992188 534.871094 169.707031 537.691406 169.707031 Z M 537.691406 169.707031 "/>
<g clip-path="url(#clip4)" clip-rule="nonzero">
<path style="fill:none;stroke-width:2;stroke-linecap:square;stroke-linejoin:miter;stroke:rgb(0%,0%,0%);stroke-opacity:1;stroke-miterlimit:10;" d="M 537.704849 108.113059 L 655.49295 108.113059 C 658.313333 108.113059 660.598546 110.933442 660.598546 113.218655 L 660.598546 125.136922 C 660.598546 127.957305 658.313333 130.242519 655.49295 130.242519 L 537.704849 130.242519 C 534.884466 130.242519 532.599252 127.422136 532.599252 125.136922 L 532.599252 113.218655 C 532.599252 110.398272 534.884466 108.113059 537.704849 108.113059 Z M 537.704849 108.113059 " transform="matrix(0.999975,0,0,0.999975,0,61.596675)"/>
</g>
<path style=" stroke:none;fill-rule:nonzero;fill:rgb(100%,100%,80%);fill-opacity:1;" d="M 537.613281 207.660156 L 655.398438 207.660156 C 658.21875 207.660156 660.503906 210.480469 660.503906 212.765625 L 660.503906 224.683594 C 660.503906 227.503906 658.21875 229.789062 655.398438 229.789062 L 537.613281 229.789062 C 534.792969 229.789062 532.507812 226.96875 532.507812 224.683594 L 532.507812 212.765625 C 532.507812 209.945312 534.792969 207.660156 537.613281 207.660156 Z M 537.613281 207.660156 "/>
<g clip-path="url(#clip5)" clip-rule="nonzero">
<path style="fill:none;stroke-width:2;stroke-linecap:square;stroke-linejoin:miter;stroke:rgb(0%,0%,0%);stroke-opacity:1;stroke-miterlimit:10;" d="M 537.626722 146.067133 L 655.414823 146.067133 C 658.235206 146.067133 660.520419 148.887516 660.520419 151.172729 L 660.520419 163.090996 C 660.520419 165.911379 658.235206 168.196592 655.414823 168.196592 L 537.626722 168.196592 C 534.806339 168.196592 532.521126 165.376209 532.521126 163.090996 L 532.521126 151.172729 C 532.521126 148.352346 534.806339 146.067133 537.626722 146.067133 Z M 537.626722 146.067133 " transform="matrix(0.999975,0,0,0.999975,0,61.596675)"/>
</g>
<path style=" stroke:none;fill-rule:nonzero;fill:rgb(100%,100%,80%);fill-opacity:1;" d="M 537.613281 246.816406 L 655.398438 246.816406 C 658.21875 246.816406 660.503906 249.636719 660.503906 251.921875 L 660.503906 263.839844 C 660.503906 266.660156 658.21875 268.945312 655.398438 268.945312 L 537.613281 268.945312 C 534.792969 268.945312 532.507812 266.125 532.507812 263.839844 L 532.507812 251.921875 C 532.507812 249.101562 534.792969 246.816406 537.613281 246.816406 Z M 537.613281 246.816406 "/>
<g clip-path="url(#clip6)" clip-rule="nonzero">
<path style="fill:none;stroke-width:2;stroke-linecap:square;stroke-linejoin:miter;stroke:rgb(0%,0%,0%);stroke-opacity:1;stroke-miterlimit:10;" d="M 537.626722 185.224362 L 655.414823 185.224362 C 658.235206 185.224362 660.520419 188.044745 660.520419 190.329958 L 660.520419 202.248225 C 660.520419 205.068608 658.235206 207.353821 655.414823 207.353821 L 537.626722 207.353821 C 534.806339 207.353821 532.521126 204.533438 532.521126 202.248225 L 532.521126 190.329958 C 532.521126 187.509575 534.806339 185.224362 537.626722 185.224362 Z M 537.626722 185.224362 " transform="matrix(0.999975,0,0,0.999975,0,61.596675)"/>
</g>
<path style=" stroke:none;fill-rule:nonzero;fill:rgb(100%,100%,80%);fill-opacity:1;" d="M 537.335938 281.3125 L 655.121094 281.3125 C 657.941406 281.3125 660.226562 284.132812 660.226562 286.417969 L 660.226562 298.335938 C 660.226562 301.15625 657.941406 303.441406 655.121094 303.441406 L 537.335938 303.441406 C 534.515625 303.441406 532.230469 300.621094 532.230469 298.335938 L 532.230469 286.417969 C 532.230469 283.597656 534.515625 281.3125 537.335938 281.3125 Z M 537.335938 281.3125 "/>
<g clip-path="url(#clip7)" clip-rule="nonzero">
<path style="fill:none;stroke-width:2;stroke-linecap:square;stroke-linejoin:miter;stroke:rgb(0%,0%,0%);stroke-opacity:1;stroke-miterlimit:10;" d="M 537.349371 219.721318 L 655.137472 219.721318 C 657.957855 219.721318 660.243069 222.541701 660.243069 224.826914 L 660.243069 236.745181 C 660.243069 239.565564 657.957855 241.850778 655.137472 241.850778 L 537.349371 241.850778 C 534.528988 241.850778 532.243775 239.030395 532.243775 236.745181 L 532.243775 224.826914 C 532.243775 222.006531 534.528988 219.721318 537.349371 219.721318 Z M 537.349371 219.721318 " transform="matrix(0.999975,0,0,0.999975,0,61.596675)"/>
</g>
<path style=" stroke:none;fill-rule:nonzero;fill:rgb(100%,100%,80%);fill-opacity:1;" d="M 537.253906 319.265625 L 655.039062 319.265625 C 657.859375 319.265625 660.144531 322.085938 660.144531 324.371094 L 660.144531 336.289062 C 660.144531 339.109375 657.859375 341.394531 655.039062 341.394531 L 537.253906 341.394531 C 534.433594 341.394531 532.148438 338.574219 532.148438 336.289062 L 532.148438 324.371094 C 532.148438 321.550781 534.433594 319.265625 537.253906 319.265625 Z M 537.253906 319.265625 "/>
<g clip-path="url(#clip8)" clip-rule="nonzero">
<path style="fill:none;stroke-width:2;stroke-linecap:square;stroke-linejoin:miter;stroke:rgb(0%,0%,0%);stroke-opacity:1;stroke-miterlimit:10;" d="M 537.267338 257.675392 L 655.055439 257.675392 C 657.875822 257.675392 660.161035 260.495775 660.161035 262.780988 L 660.161035 274.699255 C 660.161035 277.519638 657.875822 279.804851 655.055439 279.804851 L 537.267338 279.804851 C 534.446955 279.804851 532.161742 276.984468 532.161742 274.699255 L 532.161742 262.780988 C 532.161742 259.960605 534.446955 257.675392 537.267338 257.675392 Z M 537.267338 257.675392 " transform="matrix(0.999975,0,0,0.999975,0,61.596675)"/>
</g>
<path style=" stroke:none;fill-rule:nonzero;fill:rgb(100%,100%,80%);fill-opacity:1;" d="M 537.253906 389.34375 L 655.039062 389.34375 C 657.859375 389.34375 660.144531 392.164062 660.144531 394.449219 L 660.144531 406.367188 C 660.144531 409.1875 657.859375 411.472656 655.039062 411.472656 L 537.253906 411.472656 C 534.433594 411.472656 532.148438 408.652344 532.148438 406.367188 L 532.148438 394.449219 C 532.148438 391.628906 534.433594 389.34375 537.253906 389.34375 Z M 537.253906 389.34375 "/>
<g clip-path="url(#clip9)" clip-rule="nonzero">
<path style="fill:none;stroke-width:2;stroke-linecap:square;stroke-linejoin:miter;stroke:rgb(0%,0%,0%);stroke-opacity:1;stroke-miterlimit:10;" d="M 537.267338 327.755269 L 655.055439 327.755269 C 657.875822 327.755269 660.161035 330.575652 660.161035 332.860865 L 660.161035 344.779132 C 660.161035 347.599515 657.875822 349.884728 655.055439 349.884728 L 537.267338 349.884728 C 534.446955 349.884728 532.161742 347.064345 532.161742 344.779132 L 532.161742 332.860865 C 532.161742 330.040482 534.446955 327.755269 537.267338 327.755269 Z M 537.267338 327.755269 " transform="matrix(0.999975,0,0,0.999975,0,61.596675)"/>
</g>
<path style=" stroke:none;fill-rule:nonzero;fill:rgb(100%,100%,80%);fill-opacity:1;" d="M 537.253906 430.308594 L 655.039062 430.308594 C 657.859375 430.308594 660.144531 433.128906 660.144531 435.414062 L 660.144531 447.332031 C 660.144531 450.152344 657.859375 452.4375 655.039062 452.4375 L 537.253906 452.4375 C 534.433594 452.4375 532.148438 449.617188 532.148438 447.332031 L 532.148438 435.414062 C 532.148438 432.59375 534.433594 430.308594 537.253906 430.308594 Z M 537.253906 430.308594 "/>
<g clip-path="url(#clip10)" clip-rule="nonzero">
<path style="fill:none;stroke-width:2;stroke-linecap:square;stroke-linejoin:miter;stroke:rgb(0%,0%,0%);stroke-opacity:1;stroke-miterlimit:10;" d="M 537.267338 368.721137 L 655.055439 368.721137 C 657.875822 368.721137 660.161035 371.54152 660.161035 373.826733 L 660.161035 385.745 C 660.161035 388.565383 657.875822 390.850596 655.055439 390.850596 L 537.267338 390.850596 C 534.446955 390.850596 532.161742 388.030213 532.161742 385.745 L 532.161742 373.826733 C 532.161742 371.00635 534.446955 368.721137 537.267338 368.721137 Z M 537.267338 368.721137 " transform="matrix(0.999975,0,0,0.999975,0,61.596675)"/>
</g>
<path style="fill:none;stroke-width:1;stroke-linecap:square;stroke-linejoin:miter;stroke:rgb(0%,0%,0%);stroke-opacity:1;stroke-miterlimit:10;" d="M 289.788495 195.955099 L 352.559595 195.138672 " transform="matrix(0.999975,0,0,0.999975,0,61.596675)"/>
<path style="fill:none;stroke-width:1;stroke-linecap:square;stroke-linejoin:miter;stroke:rgb(0%,0%,0%);stroke-opacity:1;stroke-miterlimit:10;" d="M 352.559595 195.138672 L 342.246837 201.275544 " transform="matrix(0.999975,0,0,0.999975,0,61.596675)"/>
<path style="fill:none;stroke-width:1;stroke-linecap:square;stroke-linejoin:miter;stroke:rgb(0%,0%,0%);stroke-opacity:1;stroke-miterlimit:10;" d="M 352.559595 195.138672 L 342.090584 189.275244 " transform="matrix(0.999975,0,0,0.999975,0,61.596675)"/>
<path style="fill:none;stroke-width:1;stroke-linecap:square;stroke-linejoin:miter;stroke:rgb(0%,0%,0%);stroke-opacity:1;stroke-miterlimit:10;" d="M 274.78812 186.150166 L 274.78812 32.896335 " transform="matrix(0.999975,0,0,0.999975,0,61.596675)"/>
<path style="fill:none;stroke-width:1;stroke-linecap:square;stroke-linejoin:miter;stroke:rgb(0%,0%,0%);stroke-opacity:1;stroke-miterlimit:10;" d="M 274.78812 32.896335 L 352.559595 32.896335 " transform="matrix(0.999975,0,0,0.999975,0,61.596675)"/>
<path style="fill:none;stroke-width:1;stroke-linecap:square;stroke-linejoin:miter;stroke:rgb(0%,0%,0%);stroke-opacity:1;stroke-miterlimit:10;" d="M 352.559595 32.896335 L 342.16871 38.896485 " transform="matrix(0.999975,0,0,0.999975,0,61.596675)"/>
<path style="fill:none;stroke-width:1;stroke-linecap:square;stroke-linejoin:miter;stroke:rgb(0%,0%,0%);stroke-opacity:1;stroke-miterlimit:10;" d="M 352.559595 32.896335 L 342.16871 26.896185 " transform="matrix(0.999975,0,0,0.999975,0,61.596675)"/>
<path style="fill:none;stroke-width:1;stroke-linecap:square;stroke-linejoin:miter;stroke:rgb(0%,0%,0%);stroke-opacity:1;stroke-miterlimit:10;" d="M 274.78812 206.150666 L 274.78812 340.165735 " transform="matrix(0.999975,0,0,0.999975,0,61.596675)"/>
<path style="fill:none;stroke-width:1;stroke-linecap:square;stroke-linejoin:miter;stroke:rgb(0%,0%,0%);stroke-opacity:1;stroke-miterlimit:10;" d="M 274.78812 340.165735 L 352.122084 340.165735 " transform="matrix(0.999975,0,0,0.999975,0,61.596675)"/>
<path style="fill:none;stroke-width:1;stroke-linecap:square;stroke-linejoin:miter;stroke:rgb(0%,0%,0%);stroke-opacity:1;stroke-miterlimit:10;" d="M 352.122084 340.165735 L 341.727293 346.165885 " transform="matrix(0.999975,0,0,0.999975,0,61.596675)"/>
<path style="fill:none;stroke-width:1;stroke-linecap:square;stroke-linejoin:miter;stroke:rgb(0%,0%,0%);stroke-opacity:1;stroke-miterlimit:10;" d="M 352.122084 340.165735 L 341.727293 334.165585 " transform="matrix(0.999975,0,0,0.999975,0,61.596675)"/>
<path style="fill:none;stroke-width:1;stroke-linecap:square;stroke-linejoin:miter;stroke:rgb(0%,0%,0%);stroke-opacity:1;stroke-miterlimit:10;" d="M 367.55997 22.896085 L 367.55997 -6.397616 " transform="matrix(0.999975,0,0,0.999975,0,61.596675)"/>
<path style="fill:none;stroke-width:1;stroke-linecap:square;stroke-linejoin:miter;stroke:rgb(0%,0%,0%);stroke-opacity:1;stroke-miterlimit:10;" d="M 367.55997 -6.397616 L 532.763319 -6.397616 " transform="matrix(0.999975,0,0,0.999975,0,61.596675)"/>
<path style="fill:none;stroke-width:1;stroke-linecap:square;stroke-linejoin:miter;stroke:rgb(0%,0%,0%);stroke-opacity:1;stroke-miterlimit:10;" d="M 532.763319 -6.397616 L 522.368528 -0.397466 " transform="matrix(0.999975,0,0,0.999975,0,61.596675)"/>
<path style="fill:none;stroke-width:1;stroke-linecap:square;stroke-linejoin:miter;stroke:rgb(0%,0%,0%);stroke-opacity:1;stroke-miterlimit:10;" d="M 532.763319 -6.397616 L 522.368528 -12.397766 " transform="matrix(0.999975,0,0,0.999975,0,61.596675)"/>
<path style="fill:none;stroke-width:1;stroke-linecap:square;stroke-linejoin:miter;stroke:rgb(0%,0%,0%);stroke-opacity:1;stroke-miterlimit:10;" d="M 382.560345 32.888522 L 532.681286 32.798676 " transform="matrix(0.999975,0,0,0.999975,0,61.596675)"/>
<path style="fill:none;stroke-width:1;stroke-linecap:square;stroke-linejoin:miter;stroke:rgb(0%,0%,0%);stroke-opacity:1;stroke-miterlimit:10;" d="M 532.681286 32.798676 L 522.290401 38.802733 " transform="matrix(0.999975,0,0,0.999975,0,61.596675)"/>
<path style="fill:none;stroke-width:1;stroke-linecap:square;stroke-linejoin:miter;stroke:rgb(0%,0%,0%);stroke-opacity:1;stroke-miterlimit:10;" d="M 532.681286 32.798676 L 522.286495 26.802433 " transform="matrix(0.999975,0,0,0.999975,0,61.596675)"/>
<path style="fill:none;stroke-width:1;stroke-linecap:square;stroke-linejoin:miter;stroke:rgb(0%,0%,0%);stroke-opacity:1;stroke-miterlimit:10;" d="M 367.55997 42.896585 L 367.55997 76.733368 " transform="matrix(0.999975,0,0,0.999975,0,61.596675)"/>
<path style="fill:none;stroke-width:1;stroke-linecap:square;stroke-linejoin:miter;stroke:rgb(0%,0%,0%);stroke-opacity:1;stroke-miterlimit:10;" d="M 367.55997 76.733368 L 532.681286 76.733368 " transform="matrix(0.999975,0,0,0.999975,0,61.596675)"/>
<path style="fill:none;stroke-width:1;stroke-linecap:square;stroke-linejoin:miter;stroke:rgb(0%,0%,0%);stroke-opacity:1;stroke-miterlimit:10;" d="M 532.681286 76.733368 L 522.286495 82.733518 " transform="matrix(0.999975,0,0,0.999975,0,61.596675)"/>
<path style="fill:none;stroke-width:1;stroke-linecap:square;stroke-linejoin:miter;stroke:rgb(0%,0%,0%);stroke-opacity:1;stroke-miterlimit:10;" d="M 532.681286 76.733368 L 522.286495 70.733218 " transform="matrix(0.999975,0,0,0.999975,0,61.596675)"/>
<path style="fill:none;stroke-width:1;stroke-linecap:square;stroke-linejoin:miter;stroke:rgb(0%,0%,0%);stroke-opacity:1;stroke-miterlimit:10;" d="M 382.118928 340.075889 L 532.157835 339.196961 " transform="matrix(0.999975,0,0,0.999975,0,61.596675)"/>
<path style="fill:none;stroke-width:1;stroke-linecap:square;stroke-linejoin:miter;stroke:rgb(0%,0%,0%);stroke-opacity:1;stroke-miterlimit:10;" d="M 532.157835 339.196961 L 521.802108 345.259613 " transform="matrix(0.999975,0,0,0.999975,0,61.596675)"/>
<path style="fill:none;stroke-width:1;stroke-linecap:square;stroke-linejoin:miter;stroke:rgb(0%,0%,0%);stroke-opacity:1;stroke-miterlimit:10;" d="M 532.157835 339.196961 L 521.731793 333.259313 " transform="matrix(0.999975,0,0,0.999975,0,61.596675)"/>
<path style="fill:none;stroke-width:1;stroke-linecap:square;stroke-linejoin:miter;stroke:rgb(0%,0%,0%);stroke-opacity:1;stroke-miterlimit:10;" d="M 367.118553 350.165985 L 367.118553 379.78782 " transform="matrix(0.999975,0,0,0.999975,0,61.596675)"/>
<path style="fill:none;stroke-width:1;stroke-linecap:square;stroke-linejoin:miter;stroke:rgb(0%,0%,0%);stroke-opacity:1;stroke-miterlimit:10;" d="M 367.118553 379.78782 L 532.157835 379.78782 " transform="matrix(0.999975,0,0,0.999975,0,61.596675)"/>
<path style="fill:none;stroke-width:1;stroke-linecap:square;stroke-linejoin:miter;stroke:rgb(0%,0%,0%);stroke-opacity:1;stroke-miterlimit:10;" d="M 532.157835 379.78782 L 521.76695 385.78797 " transform="matrix(0.999975,0,0,0.999975,0,61.596675)"/>
<path style="fill:none;stroke-width:1;stroke-linecap:square;stroke-linejoin:miter;stroke:rgb(0%,0%,0%);stroke-opacity:1;stroke-miterlimit:10;" d="M 532.157835 379.78782 L 521.76695 373.78767 " transform="matrix(0.999975,0,0,0.999975,0,61.596675)"/>
<path style="fill:none;stroke-width:1;stroke-linecap:square;stroke-linejoin:miter;stroke:rgb(0%,0%,0%);stroke-opacity:1;stroke-miterlimit:10;" d="M 382.560345 195.033201 L 532.517219 195.912129 " transform="matrix(0.999975,0,0,0.999975,0,61.596675)"/>
<path style="fill:none;stroke-width:1;stroke-linecap:square;stroke-linejoin:miter;stroke:rgb(0%,0%,0%);stroke-opacity:1;stroke-miterlimit:10;" d="M 532.517219 195.912129 L 522.091177 201.853684 " transform="matrix(0.999975,0,0,0.999975,0,61.596675)"/>
<path style="fill:none;stroke-width:1;stroke-linecap:square;stroke-linejoin:miter;stroke:rgb(0%,0%,0%);stroke-opacity:1;stroke-miterlimit:10;" d="M 532.517219 195.912129 L 522.161492 189.853384 " transform="matrix(0.999975,0,0,0.999975,0,61.596675)"/>
<path style="fill:none;stroke-width:1;stroke-linecap:square;stroke-linejoin:miter;stroke:rgb(0%,0%,0%);stroke-opacity:1;stroke-miterlimit:10;" d="M 367.55997 184.947011 L 367.55997 119.179742 " transform="matrix(0.999975,0,0,0.999975,0,61.596675)"/>
<path style="fill:none;stroke-width:1;stroke-linecap:square;stroke-linejoin:miter;stroke:rgb(0%,0%,0%);stroke-opacity:1;stroke-miterlimit:10;" d="M 367.55997 119.179742 L 532.599252 119.179742 " transform="matrix(0.999975,0,0,0.999975,0,61.596675)"/>
<path style="fill:none;stroke-width:1;stroke-linecap:square;stroke-linejoin:miter;stroke:rgb(0%,0%,0%);stroke-opacity:1;stroke-miterlimit:10;" d="M 532.599252 119.179742 L 522.208368 125.179892 " transform="matrix(0.999975,0,0,0.999975,0,61.596675)"/>
<path style="fill:none;stroke-width:1;stroke-linecap:square;stroke-linejoin:miter;stroke:rgb(0%,0%,0%);stroke-opacity:1;stroke-miterlimit:10;" d="M 532.599252 119.179742 L 522.208368 113.179592 " transform="matrix(0.999975,0,0,0.999975,0,61.596675)"/>
<path style="fill:none;stroke-width:1;stroke-linecap:square;stroke-linejoin:miter;stroke:rgb(0%,0%,0%);stroke-opacity:1;stroke-miterlimit:10;" d="M 367.55997 184.947011 L 367.55997 157.133816 " transform="matrix(0.999975,0,0,0.999975,0,61.596675)"/>
<path style="fill:none;stroke-width:1;stroke-linecap:square;stroke-linejoin:miter;stroke:rgb(0%,0%,0%);stroke-opacity:1;stroke-miterlimit:10;" d="M 367.55997 157.133816 L 532.517219 157.133816 " transform="matrix(0.999975,0,0,0.999975,0,61.596675)"/>
<path style="fill:none;stroke-width:1;stroke-linecap:square;stroke-linejoin:miter;stroke:rgb(0%,0%,0%);stroke-opacity:1;stroke-miterlimit:10;" d="M 532.517219 157.133816 L 522.126334 163.133966 " transform="matrix(0.999975,0,0,0.999975,0,61.596675)"/>
<path style="fill:none;stroke-width:1;stroke-linecap:square;stroke-linejoin:miter;stroke:rgb(0%,0%,0%);stroke-opacity:1;stroke-miterlimit:10;" d="M 532.517219 157.133816 L 522.126334 151.133666 " transform="matrix(0.999975,0,0,0.999975,0,61.596675)"/>
<path style="fill:none;stroke-width:1;stroke-linecap:square;stroke-linejoin:miter;stroke:rgb(0%,0%,0%);stroke-opacity:1;stroke-miterlimit:10;" d="M 367.55997 204.947511 L 367.55997 230.788001 " transform="matrix(0.999975,0,0,0.999975,0,61.596675)"/>
<path style="fill:none;stroke-width:1;stroke-linecap:square;stroke-linejoin:miter;stroke:rgb(0%,0%,0%);stroke-opacity:1;stroke-miterlimit:10;" d="M 367.55997 230.788001 L 532.239868 230.788001 " transform="matrix(0.999975,0,0,0.999975,0,61.596675)"/>
<path style="fill:none;stroke-width:1;stroke-linecap:square;stroke-linejoin:miter;stroke:rgb(0%,0%,0%);stroke-opacity:1;stroke-miterlimit:10;" d="M 532.239868 230.788001 L 521.848984 236.788151 " transform="matrix(0.999975,0,0,0.999975,0,61.596675)"/>
<path style="fill:none;stroke-width:1;stroke-linecap:square;stroke-linejoin:miter;stroke:rgb(0%,0%,0%);stroke-opacity:1;stroke-miterlimit:10;" d="M 532.239868 230.788001 L 521.848984 224.787851 " transform="matrix(0.999975,0,0,0.999975,0,61.596675)"/>
<path style="fill:none;stroke-width:1;stroke-linecap:square;stroke-linejoin:miter;stroke:rgb(0%,0%,0%);stroke-opacity:1;stroke-miterlimit:10;" d="M 367.55997 204.947511 L 367.55997 268.742075 " transform="matrix(0.999975,0,0,0.999975,0,61.596675)"/>
<path style="fill:none;stroke-width:1;stroke-linecap:square;stroke-linejoin:miter;stroke:rgb(0%,0%,0%);stroke-opacity:1;stroke-miterlimit:10;" d="M 367.55997 268.742075 L 532.157835 268.742075 " transform="matrix(0.999975,0,0,0.999975,0,61.596675)"/>
<path style="fill:none;stroke-width:1;stroke-linecap:square;stroke-linejoin:miter;stroke:rgb(0%,0%,0%);stroke-opacity:1;stroke-miterlimit:10;" d="M 532.157835 268.742075 L 521.76695 274.742225 " transform="matrix(0.999975,0,0,0.999975,0,61.596675)"/>
<path style="fill:none;stroke-width:1;stroke-linecap:square;stroke-linejoin:miter;stroke:rgb(0%,0%,0%);stroke-opacity:1;stroke-miterlimit:10;" d="M 532.157835 268.742075 L 521.76695 262.741925 " transform="matrix(0.999975,0,0,0.999975,0,61.596675)"/>
</g>
</svg>
